{"title":"Chloe - Anal Consequences For Teenagers 3","uid":10096897,"size":280844378,"categoryP":"porn","categoryS":"movie_clips","magnet":"?xt=urn:btih:2dda5c8d8159700ba606e6fcf7e7189ed9bfdd4d&amp;dn=Chloe+-+Anal+Consequences+For+Teenagers+3&amp;tr=udp%3A%2F%2Ftracker.openbittorrent.com%3A80&amp;tr=udp%3A%2F%2Fopen.demonii.com%3A1337&amp;tr=udp%3A%2F%2Ftracker.coppersurfer.tk%3A6969&amp;tr=udp%3A%2F%2Fexodus.desync.com%3A6969","seeders":1,"leechers":0,"uploader":"athklym","files":-1,"time":1399318189,"description":" &lt;a href=&quot;http://bayimg.com/caoDpAAfA&quot; rel=&quot;nofollow&quot; target=&quot;_NEW&quot;&gt;http://bayimg.com/caoDpAAfA&lt;/a&gt;\nChloe_Anal_Consequences_For_Teenagers_3.avi\nFormat : AVI\nFormat/Info : Audio Video Interleave\nFile size : 268 MiB\nDuration : 34mn 13s\nOverall bit rate : 1 094 Kbps\nWriting library : VirtualDub build 35491/release\n\nVideo\nID : 0\nFormat : MPEG-4 Visual\nFormat profile : Advanced Simple@L5\nFormat settings, BVOP : 2\nFormat settings, QPel : No\nFormat settings, GMC : No warppoints\nFormat settings, Matrix : Default (H.263)\nMuxing mode : Packed bitstream\nCodec ID : XVID\nCodec ID/Hint : XviD\nDuration : 34mn 13s\nBit rate : 954 Kbps\nWidth : 720 pixels\nHeight : 404 pixels\nDisplay aspect ratio : 16:9\nFrame rate : 29.970 fps\nColor space : YUV\nChroma subsampling : 4:2:0\nBit depth : 8 bits\nScan type : Progressive\nCompression mode : Lossy\nBits/(Pixel*Frame) : 0.109\nStream size : 234 MiB (87%)\nWriting library : XviD 64\n\nAudio\nID : 1\nFormat : MPEG Audio\nFormat version : Version 1\nFormat profile : Layer 3\nMode : Joint stereo\nMode extension : MS Stereo\nCodec ID : 55\nCodec ID/Hint : MP3\nDuration : 34mn 13s\nBit rate mode : Constant\nBit rate : 128 Kbps\nChannel count : 2 channels\nSampling rate : 44.1 KHz\nCompression mode : Lossy\nStream size : 31.3 MiB (12%)\nAlignment : Split accross interleaves\nInterleave, duration : 33 ms (1.00 video frame)\nInterleave, preload duration : 500 ms\nWriting library : LAME3.98.2","torrent":{"xt":"urn:btih:2dda5c8d8159700ba606e6fcf7e7189ed9bfdd4d","amp;dn":"Chloe+-+Anal+Consequences+For+Teenagers+3","amp;tr":["udp%3A%2F%2Ftracker.openbittorrent.com%3A80","udp%3A%2F%2Fopen.demonii.com%3A1337","udp%3A%2F%2Ftracker.coppersurfer.tk%3A6969","udp%3A%2F%2Fexodus.desync.com%3A6969"],"infoHash":"2dda5c8d8159700ba606e6fcf7e7189ed9bfdd4d","infoHashBuffer":{"type":"Buffer","data":[45,218,92,141,129,89,112,11,166,6,230,252,247,231,24,158,217,191,221,77]},"announce":[],"urlList":[]}}